<svg xmlns="http://www.w3.org/2000/svg" width="1200" height="700" viewBox="0 0 1200 700">
<rect width="100%" height="100%" fill="#fffdf8" />
<text x="90" y="36" font-family="Helvetica, Arial, sans-serif" font-size="28" font-weight="700" fill="#111827">Mavericks vs. Trail Blazers Polymarket Price History</text>
<text x="90" y="58" font-family="Helvetica, Arial, sans-serif" font-size="14" fill="#4b5563">Polymarket price history by outcome</text>
<rect x="90" y="70" width="1070" height="540" fill="#ffffff" stroke="#d1d5db" />
<line x1="90" y1="610.00" x2="1160" y2="610.00" stroke="#e5e7eb" stroke-width="1" />
<text x="78" y="615.00" text-anchor="end" font-family="Helvetica, Arial, sans-serif" font-size="12" fill="#6b7280">0.00</text>
<line x1="90" y1="475.00" x2="1160" y2="475.00" stroke="#e5e7eb" stroke-width="1" />
<text x="78" y="480.00" text-anchor="end" font-family="Helvetica, Arial, sans-serif" font-size="12" fill="#6b7280">0.25</text>
<line x1="90" y1="340.00" x2="1160" y2="340.00" stroke="#e5e7eb" stroke-width="1" />
<text x="78" y="345.00" text-anchor="end" font-family="Helvetica, Arial, sans-serif" font-size="12" fill="#6b7280">0.50</text>
<line x1="90" y1="205.00" x2="1160" y2="205.00" stroke="#e5e7eb" stroke-width="1" />
<text x="78" y="210.00" text-anchor="end" font-family="Helvetica, Arial, sans-serif" font-size="12" fill="#6b7280">0.75</text>
<line x1="90" y1="70.00" x2="1160" y2="70.00" stroke="#e5e7eb" stroke-width="1" />
<text x="78" y="75.00" text-anchor="end" font-family="Helvetica, Arial, sans-serif" font-size="12" fill="#6b7280">1.00</text>
<line x1="90.00" y1="70" x2="90.00" y2="610" stroke="#f3f4f6" stroke-width="1" />
<text x="90.00" y="634" text-anchor="middle" font-family="Helvetica, Arial, sans-serif" font-size="12" fill="#6b7280">2026-03-21</text>
<line x1="304.00" y1="70" x2="304.00" y2="610" stroke="#f3f4f6" stroke-width="1" />
<text x="304.00" y="634" text-anchor="middle" font-family="Helvetica, Arial, sans-serif" font-size="12" fill="#6b7280">2026-03-22</text>
<line x1="518.00" y1="70" x2="518.00" y2="610" stroke="#f3f4f6" stroke-width="1" />
<text x="518.00" y="634" text-anchor="middle" font-family="Helvetica, Arial, sans-serif" font-size="12" fill="#6b7280">2026-03-24</text>
<line x1="732.00" y1="70" x2="732.00" y2="610" stroke="#f3f4f6" stroke-width="1" />
<text x="732.00" y="634" text-anchor="middle" font-family="Helvetica, Arial, sans-serif" font-size="12" fill="#6b7280">2026-03-25</text>
<line x1="946.00" y1="70" x2="946.00" y2="610" stroke="#f3f4f6" stroke-width="1" />
<text x="946.00" y="634" text-anchor="middle" font-family="Helvetica, Arial, sans-serif" font-size="12" fill="#6b7280">2026-03-26</text>
<line x1="1160.00" y1="70" x2="1160.00" y2="610" stroke="#f3f4f6" stroke-width="1" />
<text x="1160.00" y="634" text-anchor="middle" font-family="Helvetica, Arial, sans-serif" font-size="12" fill="#6b7280">2026-03-28</text>
<polyline fill="none" stroke="#0f766e" stroke-width="3" points="90.00,340.00 90.03,340.00 96.74,342.70 103.46,345.40 110.18,345.40 110.20,345.40 116.90,345.40 116.92,345.40 123.63,345.40 123.65,345.40 130.36,345.40 130.38,345.40 137.09,345.40 137.11,345.40 143.82,264.40 143.83,264.40 150.56,402.10 150.58,402.10 157.28,404.80 157.29,404.80 164.00,407.50 164.01,407.50 170.73,407.50 170.75,407.50 177.46,407.50 177.47,407.50 184.19,412.90 184.21,412.90 190.92,412.90 190.94,412.90 197.64,412.90 197.65,412.90 204.37,412.90 204.39,412.90 211.10,412.90 211.12,412.90 217.83,412.90 217.85,412.90 224.56,412.90 224.57,412.90 231.32,412.90 231.34,412.90 238.03,412.90 238.07,412.90 244.75,418.30 244.77,418.30 251.48,412.90 251.50,412.90 258.21,415.60 258.23,415.60 264.98,499.30 271.67,502.00 271.69,502.00 278.40,502.00 278.41,502.00 285.13,502.00 285.14,502.00 291.86,502.00 291.88,502.00 298.59,502.00 298.60,502.00 305.32,502.00 305.33,502.00 312.05,502.00 312.07,502.00 318.77,502.00 318.79,502.00 325.51,502.00 325.52,502.00 332.24,502.00 332.26,502.00 338.96,442.60 338.97,442.60 345.70,439.90 345.72,439.90 352.43,466.90 352.45,466.90 359.15,442.60 359.17,442.60 365.89,445.30 365.90,445.30 372.63,453.40 372.65,453.40 379.34,461.50 379.35,461.50 386.06,466.90 386.07,466.90 392.80,472.30 392.82,472.30 399.53,469.60 399.55,469.60 406.26,464.20 406.27,464.20 412.98,466.90 413.00,466.90 419.71,453.40 419.73,453.40 426.46,450.70 426.50,450.70 433.17,448.00 433.19,448.00 439.93,448.00 439.95,448.00 446.63,448.00 446.65,448.00 453.36,445.30 453.39,445.30 460.09,450.70 460.10,450.70 466.82,450.70 466.83,450.70 473.55,464.20 473.57,464.20 480.27,461.50 480.28,461.50 487.01,466.90 487.02,466.90 493.73,475.00 493.75,475.00 500.47,469.60 500.48,469.60 507.20,464.20 507.21,464.20 513.93,466.90 513.95,466.90 520.65,472.30 520.66,472.30 527.38,475.00 527.39,475.00 534.11,475.00 534.13,475.00 540.84,475.00 540.85,475.00 547.61,475.00 547.63,475.00 554.31,475.00 554.33,475.00 561.05,475.00 561.07,475.00 567.76,475.00 567.77,475.00 574.49,475.00 574.52,475.00 581.21,475.00 581.23,475.00 587.94,475.00 587.97,475.00 594.68,475.00 594.71,475.00 601.40,483.10 601.42,483.10 608.14,472.30 608.16,472.30 614.87,475.00 614.92,475.00 621.58,475.00 621.61,475.00 628.32,475.00 628.34,475.00 635.06,475.00 635.09,475.00 641.78,475.00 641.80,475.00 648.51,475.00 648.53,475.00 655.24,480.40 655.27,480.40 661.97,480.40 661.99,480.40 668.70,483.10 668.72,483.10 675.43,483.10 675.46,483.10 682.15,488.50 682.18,488.50 688.88,488.50 688.90,488.50 695.62,488.50 695.65,488.50 702.35,488.50 702.37,488.50 709.08,488.50 709.10,488.50 715.81,488.50 715.85,488.50 722.54,488.50 722.56,488.50 729.28,488.50 729.30,488.50 736.00,488.50 736.03,488.50 742.73,488.50 742.75,488.50 749.45,488.50 749.47,488.50 756.18,488.50 756.22,488.50 762.91,488.50 762.93,488.50 769.64,488.50 769.66,488.50 776.37,488.50 776.40,488.50 783.09,488.50 783.12,488.50 789.82,485.80 789.85,485.80 796.57,485.80 796.60,485.80 803.29,496.60 803.31,496.60 810.02,496.60 810.04,496.60 816.75,496.60 816.78,496.60 823.48,496.60 823.50,496.60 830.20,466.90 830.22,466.90 836.94,469.60 836.98,469.60 843.69,472.30 843.71,472.30 850.39,472.30 850.43,472.30 857.12,477.70 857.15,477.70 863.85,477.70 863.88,477.70 870.57,483.10 870.60,483.10 877.34,483.10 884.04,488.50 884.09,488.50 890.77,488.50 890.79,488.50 897.50,488.50 897.53,488.50 904.22,485.80 904.26,485.80 910.98,488.50 917.68,488.50 917.72,488.50 924.41,488.50 924.46,488.50 931.14,483.10 931.17,483.10 937.87,488.50 937.91,488.50 944.60,488.50 944.63,488.50 951.33,493.90 951.35,493.90 958.07,493.90 958.11,493.90 964.79,493.90 964.83,493.90 971.52,493.90 971.56,493.90 978.25,493.90 978.30,493.90 984.98,493.90 985.01,493.90 991.71,493.90 991.74,493.90 998.44,493.90 998.48,493.90 1005.17,493.90 1005.20,493.90 1011.89,493.90 1011.92,493.90 1018.63,493.90 1018.66,493.90 1025.35,493.90 1025.38,493.90 1032.08,499.30 1032.11,499.30 1038.82,499.30 1038.86,499.30 1045.54,504.70 1045.59,504.70 1052.27,504.70 1052.31,504.70 1059.00,504.70 1059.04,504.70 1065.73,504.70 1065.76,504.70 1072.47,504.70 1079.20,504.70 1079.25,504.70 1085.92,504.70 1085.95,504.70 1092.66,504.70 1092.70,504.70 1099.39,504.70 1099.43,504.70 1106.11,510.10 1106.14,510.10 1112.86,510.10 1112.89,510.10 1119.58,510.10 1126.30,510.10 1126.33,510.10 1133.03,510.10 1133.06,510.10 1139.76,299.50 1139.80,299.50 1146.49,304.90 1146.52,304.90 1153.21,70.27 1153.24,70.27 1159.95,70.27 1160.00,70.27" />
<circle cx="1160.00" cy="70.27" r="4" fill="#0f766e" />
<line x1="90" y1="672" x2="118" y2="672" stroke="#0f766e" stroke-width="4" />
<text x="128" y="677" font-family="Helvetica, Arial, sans-serif" font-size="14" fill="#111827">Mavericks</text>
<polyline fill="none" stroke="#b91c1c" stroke-width="3" points="90.03,340.00 96.74,340.00 103.46,340.00 110.18,340.00 110.20,334.60 116.90,334.60 116.92,334.60 123.63,334.60 123.65,334.60 130.36,334.60 130.38,334.60 137.09,334.60 137.11,334.60 143.82,334.60 143.83,415.60 150.56,415.60 150.58,277.90 157.28,277.90 157.29,275.20 164.00,275.20 164.01,272.50 170.73,272.50 170.75,272.50 177.46,272.50 177.47,272.50 184.19,272.50 184.21,267.10 190.92,267.10 190.94,267.10 197.64,267.10 197.65,267.10 204.37,267.10 204.39,267.10 211.10,267.10 211.12,267.10 217.83,267.10 217.85,267.10 224.56,267.10 224.57,267.10 231.32,267.10 231.34,267.10 238.03,267.10 238.07,267.10 244.75,267.10 244.77,261.70 251.48,261.70 251.50,267.10 258.21,267.10 258.23,264.40 264.98,264.40 271.67,264.40 271.69,178.00 278.40,178.00 278.41,178.00 285.13,178.00 285.14,178.00 291.86,178.00 291.88,178.00 298.59,178.00 298.60,178.00 305.32,178.00 305.33,178.00 312.05,178.00 312.07,178.00 318.77,178.00 318.79,178.00 325.51,178.00 325.52,178.00 332.24,178.00 332.26,178.00 338.96,178.00 338.97,237.40 345.70,237.40 345.72,240.10 352.43,240.10 352.45,213.10 359.15,213.10 359.17,237.40 365.89,237.40 365.90,234.70 372.63,234.70 372.65,226.60 379.34,226.60 379.35,218.50 386.06,218.50 386.07,213.10 392.80,213.10 392.82,207.70 399.53,207.70 399.55,210.40 406.26,210.40 406.27,215.80 412.98,215.80 413.00,213.10 419.71,213.10 419.73,226.60 426.46,226.60 426.50,229.30 433.17,229.30 433.19,232.00 439.93,232.00 439.95,232.00 446.63,232.00 446.65,232.00 453.36,232.00 453.39,234.70 460.09,234.70 460.10,229.30 466.82,229.30 466.83,229.30 473.55,229.30 473.57,215.80 480.27,215.80 480.28,218.50 487.01,218.50 487.02,213.10 493.73,213.10 493.75,205.00 500.47,205.00 500.48,210.40 507.20,210.40 507.21,215.80 513.93,215.80 513.95,213.10 520.65,213.10 520.66,207.70 527.38,207.70 527.39,205.00 534.11,205.00 534.13,205.00 540.84,205.00 540.85,205.00 547.61,205.00 547.63,205.00 554.31,205.00 554.33,205.00 561.05,205.00 561.07,205.00 567.76,205.00 567.77,205.00 574.49,205.00 574.52,205.00 581.21,205.00 581.23,205.00 587.94,205.00 587.97,205.00 594.68,205.00 594.71,205.00 601.40,205.00 601.42,196.90 608.14,196.90 608.16,207.70 614.87,207.70 614.92,205.00 621.58,205.00 621.61,205.00 628.32,205.00 628.34,205.00 635.06,205.00 635.09,205.00 641.78,205.00 641.80,205.00 648.51,205.00 648.53,205.00 655.24,205.00 655.27,199.60 661.97,199.60 661.99,199.60 668.70,199.60 668.72,196.90 675.43,196.90 675.46,196.90 682.15,196.90 682.18,191.50 688.88,191.50 688.90,191.50 695.62,191.50 695.65,191.50 702.35,191.50 702.37,191.50 709.08,191.50 709.10,191.50 715.81,191.50 715.85,191.50 722.54,191.50 722.56,191.50 729.28,191.50 729.30,191.50 736.00,191.50 736.03,191.50 742.73,191.50 742.75,191.50 749.45,191.50 749.47,191.50 756.18,191.50 756.22,191.50 762.91,191.50 762.93,191.50 769.64,191.50 769.66,191.50 776.37,191.50 776.40,191.50 783.09,191.50 783.12,191.50 789.82,191.50 789.85,194.20 796.57,194.20 796.60,194.20 803.29,194.20 803.31,183.40 810.02,183.40 810.04,183.40 816.75,183.40 816.78,183.40 823.48,183.40 823.50,183.40 830.20,183.40 830.22,213.10 836.94,213.10 836.98,210.40 843.69,210.40 843.71,207.70 850.39,207.70 850.43,207.70 857.12,207.70 857.15,202.30 863.85,202.30 863.88,202.30 870.57,202.30 870.60,196.90 877.34,196.90 884.04,196.90 884.09,191.50 890.77,191.50 890.79,191.50 897.50,191.50 897.53,191.50 904.22,191.50 904.26,194.20 910.98,194.20 917.68,194.20 917.72,191.50 924.41,191.50 924.46,191.50 931.14,191.50 931.17,196.90 937.87,196.90 937.91,191.50 944.60,191.50 944.63,191.50 951.33,191.50 951.35,186.10 958.07,186.10 958.11,186.10 964.79,186.10 964.83,186.10 971.52,186.10 971.56,186.10 978.25,186.10 978.30,186.10 984.98,186.10 985.01,186.10 991.71,186.10 991.74,186.10 998.44,186.10 998.48,186.10 1005.17,186.10 1005.20,186.10 1011.89,186.10 1011.92,186.10 1018.63,186.10 1018.66,186.10 1025.35,186.10 1025.38,186.10 1032.08,186.10 1032.11,180.70 1038.82,180.70 1038.86,180.70 1045.54,180.70 1045.59,175.30 1052.27,175.30 1052.31,175.30 1059.00,175.30 1059.04,175.30 1065.73,175.30 1065.76,175.30 1072.47,175.30 1079.20,175.30 1079.25,175.30 1085.92,175.30 1085.95,175.30 1092.66,175.30 1092.70,175.30 1099.39,175.30 1099.43,175.30 1106.11,175.30 1106.14,169.90 1112.86,169.90 1112.89,169.90 1119.58,169.90 1126.30,169.90 1126.33,169.90 1133.03,169.90 1133.06,169.90 1139.76,169.90 1139.80,380.50 1146.49,380.50 1146.52,375.10 1153.21,375.10 1153.24,609.73 1159.95,609.73 1160.00,609.73" />
<circle cx="1160.00" cy="609.73" r="4" fill="#b91c1c" />
<line x1="310" y1="672" x2="338" y2="672" stroke="#b91c1c" stroke-width="4" />
<text x="348" y="677" font-family="Helvetica, Arial, sans-serif" font-size="14" fill="#111827">Trail Blazers</text>
</svg>